<svg id="Layer_1" data-name="Layer 1" xmlns="http://www.w3.org/2000/svg" xmlns:xlink="http://www.w3.org/1999/xlink" viewBox="0 0 237.99 293.35"><defs><style>.cls-1{fill:none;stroke-miterlimit:10;stroke-width:8px;stroke:url(#linear-gradient);}</style><linearGradient id="linear-gradient" x1="6.49" y1="151.03" x2="244.48" y2="151.03" gradientUnits="userSpaceOnUse"><stop offset="0" stop-color="#6962ff"/><stop offset="1" stop-color="#44d0ff"/></linearGradient></defs><title>bb2</title><path class="cls-1" d="M10.5,195.36q0,26.47,0,52.94,0,8.76,0,17.53c0,13.85,9,24.7,22.55,27.4a23.18,23.18,0,0,0,4.48.43c32.34,0,64.69.15,97-.09,17.83-.13,35.31-2.8,52-9.56,18.33-7.44,33.21-19,43.13-36.42a82.72,82.72,0,0,0,10.29-33c2.62-25.6-5.61-47.75-21.32-67.52-1.66-2.09-3.25-4-3-6.91a9.71,9.71,0,0,1,.94-3.3,141.56,141.56,0,0,0,10.67-33,76.48,76.48,0,0,0,.5-21.6,79.75,79.75,0,0,0-9.39-30.74c-8-14.5-19.85-24.94-34.65-32.12a110.27,110.27,0,0,0-36.86-10.1,181.78,181.78,0,0,0-19.22-1q-57.46,0-114.91,0c-1.65,0-2.24.25-2.24,2.12.07,37.9,0,75.8.07,113.7,0,10,.94,20,4.8,29.38,5.65,13.78,16,21.3,30.67,23.2,4.1.53,8.19.08,12.29.07q47-.11,94.08,0c14.07,0,25.59,8.89,28.62,22.14A28,28,0,0,1,157.29,233a38.43,38.43,0,0,1-4.83.3q-52.6,0-105.19,0c-1.65,0-2.14.35-2.09,2.06.13,4.74,0,9.49,0,14.23,0,5.81,3.63,9.43,9.41,9.43,26.15,0,52.31.09,78.46-.05,14.06-.08,27.89-1.89,41-7.29,10.46-4.3,19.34-10.65,25.15-20.61,5.22-8.94,7.07-18.7,6.46-29-1-17.72-10.71-29.74-25.41-38.42a83.7,83.7,0,0,0-17.88-7.83c-3.56-1.1-6.12-3.25-7.14-6.9a9.53,9.53,0,0,1,6.29-11.74,57.27,57.27,0,0,0,12.47-5.5c10.6-6.64,16.54-16.37,18.64-28.53,1.64-9.53,1.35-19-1.85-28.23-4.4-12.66-13.46-20.88-25.62-25.9a77.57,77.57,0,0,0-26.46-5.59c-20.12-.86-40.26-.21-60.39-.36C68,43,57.55,43.1,47.13,43c-1.44,0-2,.23-2,1.85.12,5.32.11,10.65,0,16,0,1.57.45,1.91,1.94,1.91,30.15,0,60.29,0,90.44-.06,7.27,0,13.82,1.83,19.41,6.54a27.25,27.25,0,0,1,10.14,22.21,28.16,28.16,0,0,1-25.38,27.6,43.18,43.18,0,0,1-4.34.08H48.87c-3.65,0-3.65,0-3.65,3.57,0,2.2,0,13.4,0,15.6a9.29,9.29,0,0,0,9.56,9.52c7.15,0,83.48,0,90.66,0" transform="translate(-6.49 -4.36)"/></svg>